<svg width="32" height="32" viewBox="0 0 32 32" fill="none" xmlns="http://www.w3.org/2000/svg">
<path fill-rule="evenodd" clip-rule="evenodd" d="M3.73838 11.1377C3.36486 14.6082 3.38151 18.6109 3.90127 22.0673C4.18887 23.9798 5.74976 25.446 7.67652 25.6135L9.69016 25.7885C13.8889 26.1535 18.1114 26.1535 22.3101 25.7885L24.3237 25.6135C26.2505 25.446 27.8114 23.9798 28.099 22.0673C28.6188 18.6108 28.6354 14.6084 28.2619 11.1379C28.2136 10.7355 28.1593 10.3337 28.099 9.93261C27.8114 8.02009 26.2505 6.55389 24.3237 6.3864L22.3101 6.21136C18.1114 5.84638 13.8889 5.84638 9.69016 6.21136L7.67652 6.38641C5.74976 6.55389 4.18887 8.02009 3.90127 9.93261C3.84096 10.3337 3.78666 10.7354 3.73838 11.1377ZM9.86337 8.20385C13.9468 7.84888 18.0534 7.84888 22.1369 8.20385L24.1505 8.37889C25.1563 8.46632 25.9711 9.23168 26.1212 10.23C26.1368 10.3337 26.152 10.4374 26.1667 10.5412L18.7521 14.6604C17.0406 15.6113 14.9596 15.6113 13.2481 14.6604L5.83352 10.5412C5.84827 10.4374 5.86344 10.3337 5.87903 10.23C6.02916 9.23168 6.84395 8.46632 7.84972 8.37889L9.86337 8.20385ZM26.4115 12.6931C26.6701 15.7168 26.5734 18.7633 26.1212 21.7699C25.9711 22.7682 25.1563 23.5336 24.1505 23.621L22.1369 23.7961C18.0534 24.151 13.9468 24.151 9.86337 23.7961L7.84972 23.621C6.84395 23.5336 6.02916 22.7682 5.87903 21.7699C5.42692 18.7633 5.33017 15.7168 5.58879 12.6932L12.2768 16.4088C14.5923 17.6952 17.4078 17.6952 19.7234 16.4088L26.4115 12.6931Z" fill="#707070"/>
</svg>
