<svg width="32" height="32" viewBox="0 0 32 32" fill="none" xmlns="http://www.w3.org/2000/svg">
<path fill-rule="evenodd" clip-rule="evenodd" d="M7.78705 13.1419C10.1701 18.3311 14.4108 22.4566 19.6825 24.6921L19.6991 24.6991L20.7175 25.1531C22.0144 25.7309 23.5387 25.3205 24.3701 24.1697L26.0693 21.8181C26.1731 21.6744 26.1463 21.4747 26.0084 21.3634L23.0421 18.9704C22.8946 18.8514 22.6778 18.8791 22.565 19.0313L21.4105 20.5892C21.1301 20.9675 20.6238 21.099 20.1948 20.9048C16.2529 19.1209 13.0853 15.9533 11.3014 12.0114C11.1072 11.5824 11.2387 11.0761 11.617 10.7957L13.1749 9.64122C13.3271 9.52841 13.3548 9.31157 13.2358 9.16411L10.8424 6.19739C10.7312 6.0595 10.5315 6.03272 10.3879 6.13641L8.02352 7.84329C6.86513 8.67954 6.45719 10.2167 7.04847 11.5173L7.78626 13.1402C7.78652 13.1407 7.78679 13.1413 7.78705 13.1419ZM18.8933 26.5298C13.1652 24.0984 8.55808 19.6143 5.96868 13.9747L5.96712 13.9713L5.22779 12.345C4.24232 10.1773 4.92223 7.61545 6.85287 6.22169L9.21726 4.51482C10.2228 3.78894 11.6204 3.97641 12.3991 4.9416L14.7924 7.90833C15.6252 8.94056 15.4312 10.4584 14.3657 11.2481L13.473 11.9096C14.9809 14.8355 17.3707 17.2253 20.2966 18.7332L20.9581 17.8405C21.7478 16.775 23.2657 16.581 24.2979 17.4138L27.2642 19.8068C28.2297 20.5857 28.4169 21.9839 27.6904 22.9894L25.9913 25.341C24.6055 27.259 22.065 27.9429 19.9036 26.98L18.8933 26.5298Z" fill="#707070"/>
</svg>
