<svg width="1440" height="1024" viewBox="0 0 1440 1024" fill="none" xmlns="http://www.w3.org/2000/svg">
<g clip-path="url(#clip0_287_663)">
<rect width="1440" height="1024" fill="#F5F5F5"/>
<path fill-rule="evenodd" clip-rule="evenodd" d="M0 863.5V564C123.5 638 23.5 666.5 123.5 690.5C223.5 714.5 285.5 817 385.5 817C485.5 817 541.5 909.5 641.5 903.5C741.5 897.5 858 905.492 908 941.492L1104.5 1024H975H908C858 1024 769.5 1024 669.5 1024C569.5 1024 458 1024 358 1024C258 1024 177 1024 77 1024C-23 1024 50 1024 0 1024V863.5Z" fill="#7752FE"/>
<path fill-rule="evenodd" clip-rule="evenodd" d="M1439.5 160.5V460C1316 386 1416 357.5 1316 333.5C1216 309.5 1154 207 1054 207C954 207 898 114.5 798 120.5C698 126.5 581.5 118.508 531.5 82.5084L335 6.10352e-05L464.5 6.10352e-05H531.5C581.5 6.10352e-05 670 6.10352e-05 770 6.10352e-05C870 6.10352e-05 981.5 6.10352e-05 1081.5 6.10352e-05C1181.5 6.10352e-05 1262.5 6.10352e-05 1362.5 6.10352e-05C1462.5 6.10352e-05 1389.5 6.10352e-05 1439.5 6.10352e-05V160.5Z" fill="#7752FE"/>
</g>
<defs>
<clipPath id="clip0_287_663">
<rect width="1440" height="1024" fill="white"/>
</clipPath>
</defs>
</svg>
